<?xml version="1.0" encoding="utf-8"?>
<!-- Generator: Adobe Illustrator 20.1.0, SVG Export Plug-In . SVG Version: 6.00 Build 0)  -->
<svg version="1.1" id="Layer_1" xmlns="http://www.w3.org/2000/svg" xmlns:xlink="http://www.w3.org/1999/xlink" x="0px" y="0px"
	 viewBox="0 0 64.4 64.4" style="enable-background:new 0 0 64.4 64.4;" xml:space="preserve">
<style type="text/css">
	.st0{fill:none;stroke:#FFFFFF;stroke-width:0.65;stroke-miterlimit:10;}
</style>
<title>logo</title>
<g id="Ebene_2">
	<circle class="st0" cx="32.2" cy="32.2" r="31.9"/>
	<line class="st0" x1="19.3" y1="30.7" x2="34.5" y2="30.7"/>
	<line class="st0" x1="25.4" y1="36.8" x2="40.6" y2="36.8"/>
	<line class="st0" x1="13.2" y1="42.9" x2="40.6" y2="42.9"/>
	<line class="st0" x1="19.3" y1="48.9" x2="34.5" y2="48.9"/>
	<line class="st0" x1="19.3" y1="12.5" x2="34.5" y2="12.5"/>
	<line class="st0" x1="13.2" y1="18.6" x2="40.6" y2="18.6"/>
	<line class="st0" x1="13.2" y1="24.6" x2="28.4" y2="24.6"/>
	<line class="st0" x1="29.9" y1="33.7" x2="45.1" y2="33.7"/>
	<line class="st0" x1="36" y1="39.8" x2="51.2" y2="39.8"/>
	<line class="st0" x1="23.9" y1="45.9" x2="51.2" y2="45.9"/>
	<line class="st0" x1="29.9" y1="52" x2="45.1" y2="52"/>
	<line class="st0" x1="29.9" y1="15.5" x2="45.1" y2="15.5"/>
	<line class="st0" x1="23.9" y1="21.6" x2="51.2" y2="21.6"/>
	<line class="st0" x1="23.9" y1="27.7" x2="39" y2="27.7"/>
</g>
</svg>
