<?xml version="1.0" standalone="no"?>
<!DOCTYPE svg PUBLIC "-//W3C//DTD SVG 20010904//EN"
 "http://www.w3.org/TR/2001/REC-SVG-20010904/DTD/svg10.dtd">
<svg version="1.0" xmlns="http://www.w3.org/2000/svg"
 width="139.000000pt" height="139.000000pt" viewBox="0 0 139.000000 139.000000"
 preserveAspectRatio="xMidYMid meet">
<metadata>
Created by potrace 1.11, written by Peter Selinger 2001-2013
</metadata>
<g transform="translate(0.000000,139.000000) scale(0.100000,-0.100000)"
fill="#000000" stroke="none">
<path d="M580 1370 c-144 -23 -267 -87 -376 -195 -66 -66 -89 -98 -128 -175
-102 -207 -102 -424 1 -630 28 -55 60 -98 123 -161 135 -137 266 -196 455
-206 131 -7 222 13 345 73 77 38 110 62 176 129 68 68 89 97 127 176 59 124
72 180 71 319 -1 95 -6 129 -27 195 -36 110 -89 196 -173 279 -125 126 -272
191 -446 200 -51 3 -118 1 -148 -4z m278 -36 c231 -60 418 -249 478 -484 21
-79 23 -234 5 -310 -7 -30 -32 -95 -56 -145 -77 -160 -210 -278 -384 -338 -77
-27 -99 -31 -206 -31 -138 -1 -223 20 -335 81 -84 47 -206 169 -253 253 -61
112 -82 197 -81 335 0 107 4 129 31 206 83 239 287 410 533 449 68 11 193 3
268 -16z"/>
<path d="M410 1110 c0 -6 62 -10 165 -10 103 0 165 4 165 10 0 6 -62 10 -165
10 -103 0 -165 -4 -165 -10z"/>
<path d="M640 1045 c0 -13 21 -15 160 -13 216 4 218 22 3 26 -142 2 -163 0
-163 -13z"/>
<path d="M280 980 c0 -6 105 -10 295 -10 190 0 295 4 295 10 0 6 -105 10 -295
10 -190 0 -295 -4 -295 -10z"/>
<path d="M510 915 c0 -13 39 -15 290 -15 251 0 290 2 290 15 0 13 -39 15 -290
15 -251 0 -290 -2 -290 -15z"/>
<path d="M280 850 c0 -6 62 -10 165 -10 103 0 165 4 165 10 0 6 -62 10 -165
10 -103 0 -165 -4 -165 -10z"/>
<path d="M510 785 c0 -13 21 -15 160 -13 216 4 218 22 3 26 -142 2 -163 0
-163 -13z"/>
<path d="M410 720 c0 -6 62 -10 165 -10 103 0 165 4 165 10 0 6 -62 10 -165
10 -103 0 -165 -4 -165 -10z"/>
<path d="M640 660 c0 -6 62 -10 166 -10 107 0 163 3 159 10 -4 6 -70 10 -166
10 -99 0 -159 -4 -159 -10z"/>
<path d="M540 590 c0 -6 62 -10 165 -10 103 0 165 4 165 10 0 6 -62 10 -165
10 -103 0 -165 -4 -165 -10z"/>
<path d="M770 530 c0 -6 60 -10 160 -10 100 0 160 4 160 10 0 6 -60 10 -160
10 -100 0 -160 -4 -160 -10z"/>
<path d="M280 460 c0 -6 105 -10 295 -10 190 0 295 4 295 10 0 6 -105 10 -295
10 -190 0 -295 -4 -295 -10z"/>
<path d="M510 400 c0 -6 103 -10 290 -10 187 0 290 4 290 10 0 6 -103 10 -290
10 -187 0 -290 -4 -290 -10z"/>
<path d="M410 330 c0 -6 62 -10 165 -10 103 0 165 4 165 10 0 6 -62 10 -165
10 -103 0 -165 -4 -165 -10z"/>
<path d="M640 270 c0 -6 62 -10 166 -10 107 0 163 3 159 10 -8 14 -325 14
-325 0z"/>
</g>
</svg>
